<mxfile host="app.diagrams.net" modified="2023-06-06T14:26:17.008Z" agent="Mozilla/5.0 (X11; Linux x86_64) AppleWebKit/537.36 (KHTML, like Gecko) Chrome/112.0.0.0 Safari/537.36" etag="nu_zLyEOdlmiZxKosh1Y" version="21.3.7" type="github">
  <diagram name="Page-1" id="6DPXtAbf3s3L1zGYeF6c">
    <mxGraphModel dx="1185" dy="684" grid="1" gridSize="10" guides="1" tooltips="1" connect="1" arrows="1" fold="1" page="1" pageScale="1" pageWidth="850" pageHeight="1100" math="0" shadow="0">
      <root>
        <mxCell id="0" />
        <mxCell id="1" parent="0" />
        <mxCell id="MeMGclh-0OkEfqq71Cgk-8" style="edgeStyle=orthogonalEdgeStyle;rounded=0;orthogonalLoop=1;jettySize=auto;html=1;exitX=0.5;exitY=1;exitDx=0;exitDy=0;entryX=0.5;entryY=0;entryDx=0;entryDy=0;fillColor=#ffe6cc;strokeColor=#d79b00;" edge="1" parent="1" source="MeMGclh-0OkEfqq71Cgk-1" target="MeMGclh-0OkEfqq71Cgk-4">
          <mxGeometry relative="1" as="geometry" />
        </mxCell>
        <mxCell id="MeMGclh-0OkEfqq71Cgk-43" style="edgeStyle=orthogonalEdgeStyle;rounded=0;orthogonalLoop=1;jettySize=auto;html=1;exitX=0.5;exitY=1;exitDx=0;exitDy=0;entryX=0.5;entryY=0;entryDx=0;entryDy=0;" edge="1" parent="1" source="MeMGclh-0OkEfqq71Cgk-1" target="MeMGclh-0OkEfqq71Cgk-26">
          <mxGeometry relative="1" as="geometry" />
        </mxCell>
        <mxCell id="MeMGclh-0OkEfqq71Cgk-1" value="API Gateway&lt;br&gt;- Rate Limiting" style="rounded=1;whiteSpace=wrap;html=1;" vertex="1" parent="1">
          <mxGeometry x="302.5" y="10" width="130" height="70" as="geometry" />
        </mxCell>
        <mxCell id="MeMGclh-0OkEfqq71Cgk-12" style="edgeStyle=orthogonalEdgeStyle;rounded=0;orthogonalLoop=1;jettySize=auto;html=1;exitX=0.5;exitY=1;exitDx=0;exitDy=0;entryX=0.25;entryY=0;entryDx=0;entryDy=0;fillColor=#ffe6cc;strokeColor=#d79b00;" edge="1" parent="1" source="MeMGclh-0OkEfqq71Cgk-4" target="MeMGclh-0OkEfqq71Cgk-5">
          <mxGeometry relative="1" as="geometry" />
        </mxCell>
        <mxCell id="MeMGclh-0OkEfqq71Cgk-4" value="Kafka&lt;br&gt;- Buffer" style="rounded=1;whiteSpace=wrap;html=1;fillColor=#ffe6cc;strokeColor=#d79b00;" vertex="1" parent="1">
          <mxGeometry x="260" y="180" width="90" height="30" as="geometry" />
        </mxCell>
        <mxCell id="MeMGclh-0OkEfqq71Cgk-14" style="edgeStyle=orthogonalEdgeStyle;rounded=0;orthogonalLoop=1;jettySize=auto;html=1;exitX=0;exitY=0.5;exitDx=0;exitDy=0;entryX=0.5;entryY=0;entryDx=0;entryDy=0;" edge="1" parent="1" source="MeMGclh-0OkEfqq71Cgk-5" target="MeMGclh-0OkEfqq71Cgk-6">
          <mxGeometry relative="1" as="geometry" />
        </mxCell>
        <mxCell id="MeMGclh-0OkEfqq71Cgk-15" style="edgeStyle=orthogonalEdgeStyle;rounded=0;orthogonalLoop=1;jettySize=auto;html=1;exitX=1;exitY=0.5;exitDx=0;exitDy=0;entryX=0.5;entryY=0;entryDx=0;entryDy=0;" edge="1" parent="1" source="MeMGclh-0OkEfqq71Cgk-5" target="MeMGclh-0OkEfqq71Cgk-7">
          <mxGeometry relative="1" as="geometry" />
        </mxCell>
        <mxCell id="MeMGclh-0OkEfqq71Cgk-49" style="edgeStyle=orthogonalEdgeStyle;rounded=0;orthogonalLoop=1;jettySize=auto;html=1;exitX=1;exitY=0;exitDx=0;exitDy=0;entryX=0.583;entryY=1.057;entryDx=0;entryDy=0;entryPerimeter=0;" edge="1" parent="1" source="MeMGclh-0OkEfqq71Cgk-5" target="MeMGclh-0OkEfqq71Cgk-26">
          <mxGeometry relative="1" as="geometry" />
        </mxCell>
        <mxCell id="MeMGclh-0OkEfqq71Cgk-5" value="NiFi&lt;br&gt;- Data Processors" style="rounded=1;whiteSpace=wrap;html=1;" vertex="1" parent="1">
          <mxGeometry x="312.5" y="260" width="130" height="40" as="geometry" />
        </mxCell>
        <mxCell id="MeMGclh-0OkEfqq71Cgk-24" style="edgeStyle=orthogonalEdgeStyle;rounded=0;orthogonalLoop=1;jettySize=auto;html=1;exitX=0.5;exitY=1;exitDx=0;exitDy=0;entryX=0;entryY=0.5;entryDx=0;entryDy=0;" edge="1" parent="1" source="MeMGclh-0OkEfqq71Cgk-6" target="MeMGclh-0OkEfqq71Cgk-22">
          <mxGeometry relative="1" as="geometry" />
        </mxCell>
        <mxCell id="MeMGclh-0OkEfqq71Cgk-6" value="ElasticSearch&lt;br&gt;- Search&lt;br&gt;- Watcher" style="rounded=1;whiteSpace=wrap;html=1;" vertex="1" parent="1">
          <mxGeometry x="210" y="330" width="120" height="50" as="geometry" />
        </mxCell>
        <mxCell id="MeMGclh-0OkEfqq71Cgk-25" style="edgeStyle=orthogonalEdgeStyle;rounded=0;orthogonalLoop=1;jettySize=auto;html=1;entryX=1;entryY=0.5;entryDx=0;entryDy=0;exitX=0.5;exitY=1;exitDx=0;exitDy=0;" edge="1" parent="1" source="MeMGclh-0OkEfqq71Cgk-7" target="MeMGclh-0OkEfqq71Cgk-22">
          <mxGeometry relative="1" as="geometry" />
        </mxCell>
        <mxCell id="MeMGclh-0OkEfqq71Cgk-7" value="Prometheus&lt;br&gt;- Aggregation&lt;br&gt;-&amp;nbsp;Alertmanager" style="rounded=1;whiteSpace=wrap;html=1;" vertex="1" parent="1">
          <mxGeometry x="440" y="330" width="105" height="50" as="geometry" />
        </mxCell>
        <mxCell id="MeMGclh-0OkEfqq71Cgk-20" value="Logs" style="text;whiteSpace=wrap;html=1;" vertex="1" parent="1">
          <mxGeometry x="240" y="290" width="80" height="10" as="geometry" />
        </mxCell>
        <mxCell id="MeMGclh-0OkEfqq71Cgk-21" value="- Validation&lt;br&gt;- Masking" style="text;whiteSpace=wrap;html=1;" vertex="1" parent="1">
          <mxGeometry x="450" y="210" width="80" height="10" as="geometry" />
        </mxCell>
        <mxCell id="MeMGclh-0OkEfqq71Cgk-22" value="Infra" style="rounded=1;whiteSpace=wrap;html=1;" vertex="1" parent="1">
          <mxGeometry x="335" y="440" width="85" height="30" as="geometry" />
        </mxCell>
        <mxCell id="MeMGclh-0OkEfqq71Cgk-54" style="edgeStyle=orthogonalEdgeStyle;rounded=0;orthogonalLoop=1;jettySize=auto;html=1;exitX=0.25;exitY=1;exitDx=0;exitDy=0;entryX=0.75;entryY=0;entryDx=0;entryDy=0;" edge="1" parent="1" source="MeMGclh-0OkEfqq71Cgk-26" target="MeMGclh-0OkEfqq71Cgk-5">
          <mxGeometry relative="1" as="geometry" />
        </mxCell>
        <mxCell id="MeMGclh-0OkEfqq71Cgk-26" value="HDFS&lt;br&gt;- Storage" style="rounded=1;whiteSpace=wrap;html=1;" vertex="1" parent="1">
          <mxGeometry x="385" y="180" width="100" height="30" as="geometry" />
        </mxCell>
        <mxCell id="MeMGclh-0OkEfqq71Cgk-42" style="edgeStyle=orthogonalEdgeStyle;rounded=0;orthogonalLoop=1;jettySize=auto;html=1;" edge="1" parent="1" source="MeMGclh-0OkEfqq71Cgk-41" target="MeMGclh-0OkEfqq71Cgk-26">
          <mxGeometry relative="1" as="geometry" />
        </mxCell>
        <mxCell id="MeMGclh-0OkEfqq71Cgk-41" value="Hue&lt;br&gt;- Log Viewer with LDAP&amp;nbsp;integration" style="rounded=1;whiteSpace=wrap;html=1;" vertex="1" parent="1">
          <mxGeometry x="570" y="170" width="230" height="50" as="geometry" />
        </mxCell>
        <mxCell id="MeMGclh-0OkEfqq71Cgk-57" value="- Kafka&amp;nbsp;Plugin(Kong)&lt;br&gt;- JS Middleware(Tyk)" style="text;whiteSpace=wrap;html=1;fillColor=#ffe6cc;strokeColor=#d79b00;" vertex="1" parent="1">
          <mxGeometry x="180" y="120" width="150" height="40" as="geometry" />
        </mxCell>
        <mxCell id="MeMGclh-0OkEfqq71Cgk-68" value="If we are ok with data being transformed at slower pace, Kafka won&#39;t be needed." style="shape=callout;whiteSpace=wrap;html=1;perimeter=calloutPerimeter;base=30;position2=1;size=40;position=0.5;" vertex="1" parent="1">
          <mxGeometry x="60" y="30" width="120" height="110" as="geometry" />
        </mxCell>
      </root>
    </mxGraphModel>
  </diagram>
</mxfile>
